<svg width="25" height="25" viewBox="0 0 25 25" fill="none" xmlns="http://www.w3.org/2000/svg">
   <path
      d="M13.575 15.4875L16.175 12.8875C16.3583 12.7042 16.45 12.4708 16.45 12.1875C16.45 11.9042 16.3583 11.6708 16.175 11.4875L13.55 8.8625C13.3667 8.67917 13.1377 8.5915 12.863 8.5995C12.5877 8.60817 12.3583 8.70417 12.175 8.8875C11.9917 9.07083 11.9 9.30417 11.9 9.5875C11.9 9.87083 11.9917 10.1042 12.175 10.2875L13.075 11.1875H9.85C9.56667 11.1875 9.33333 11.2832 9.15 11.4745C8.96667 11.6665 8.875 11.9042 8.875 12.1875C8.875 12.4708 8.971 12.7082 9.163 12.8995C9.35433 13.0915 9.59167 13.1875 9.875 13.1875H13.075L12.15 14.1125C11.9667 14.2958 11.879 14.5252 11.887 14.8005C11.8957 15.0752 11.9917 15.3042 12.175 15.4875C12.3583 15.6708 12.5917 15.7625 12.875 15.7625C13.1583 15.7625 13.3917 15.6708 13.575 15.4875ZM12.875 22.1875C11.4917 22.1875 10.1917 21.9248 8.975 21.3995C7.75833 20.8748 6.7 20.1625 5.8 19.2625C4.9 18.3625 4.18767 17.3042 3.663 16.0875C3.13767 14.8708 2.875 13.5708 2.875 12.1875C2.875 10.8042 3.13767 9.50417 3.663 8.2875C4.18767 7.07083 4.9 6.0125 5.8 5.1125C6.7 4.2125 7.75833 3.49983 8.975 2.9745C10.1917 2.44983 11.4917 2.1875 12.875 2.1875C14.2583 2.1875 15.5583 2.44983 16.775 2.9745C17.9917 3.49983 19.05 4.2125 19.95 5.1125C20.85 6.0125 21.5623 7.07083 22.087 8.2875C22.6123 9.50417 22.875 10.8042 22.875 12.1875C22.875 13.5708 22.6123 14.8708 22.087 16.0875C21.5623 17.3042 20.85 18.3625 19.95 19.2625C19.05 20.1625 17.9917 20.8748 16.775 21.3995C15.5583 21.9248 14.2583 22.1875 12.875 22.1875Z"
      fill="#FCFCFD" />
</svg>
