<svg width="16" height="16" viewBox="0 0 16 16" fill="none" xmlns="http://www.w3.org/2000/svg">
   <path d="M4 4H5.33333V5.33333H4V4Z" fill="#B5B3BC" />
   <path
      d="M2 7.33333V2H7.33333V7.33333H2ZM3.33333 3.33333V6H6V3.33333H3.33333ZM8.66667 8.66667H10.6667V10H8.66667V8.66667Z"
      fill="#B5B3BC" />
   <path
      d="M10.6665 10H11.9998V8.66667H13.9998V10.6667H11.9998V11.3333H12.6665V12H13.9998V14H12.6665V12.6667H11.3332V14H8.6665V11.3333H9.99984V12.6667H10.6665V10ZM11.9998 4H10.6665V5.33333H11.9998V4Z"
      fill="#B5B3BC" />
   <path d="M8.66667 2V7.33333H14V2H8.66667ZM12.6667 3.33333V6H10V3.33333H12.6667ZM4 10.6667H5.33333V12H4V10.6667Z"
      fill="#B5B3BC" />
   <path d="M2 14.0003V8.66699H7.33333V14.0003H2ZM3.33333 10.0003V12.667H6V10.0003H3.33333Z" fill="#B5B3BC" />
</svg>
