<svg width="24" height="24" viewBox="0 0 24 24" fill="none" xmlns="http://www.w3.org/2000/svg">
   <g clip-path="url(#clip0_114_9502)">
      <path
         d="M22.3537 12.5067L17.7337 10.3801V4.28672C17.7316 4.15889 17.6928 4.03436 17.6219 3.92797C17.5509 3.82159 17.4509 3.73785 17.3337 3.68672L12.3337 1.38672C12.246 1.34611 12.1504 1.32507 12.0537 1.32507C11.957 1.32507 11.8615 1.34611 11.7737 1.38672L6.77373 3.68672C6.65801 3.74028 6.56007 3.8259 6.49154 3.93342C6.423 4.04095 6.38674 4.16588 6.38706 4.29339V10.3867L1.78706 12.5067C1.67134 12.5603 1.57341 12.6459 1.50487 12.7534C1.43634 12.861 1.40008 12.9859 1.40039 13.1134V19.6334C1.40008 19.7609 1.43634 19.8858 1.50487 19.9934C1.57341 20.1009 1.67134 20.1865 1.78706 20.2401L6.78706 22.5401C6.87482 22.5807 6.97036 22.6017 7.06706 22.6017C7.16376 22.6017 7.2593 22.5807 7.34706 22.5401L12.0671 20.3667L16.7871 22.5401C16.8748 22.5807 16.9704 22.6017 17.0671 22.6017C17.1638 22.6017 17.2593 22.5807 17.3471 22.5401L22.3471 20.2401C22.4628 20.1865 22.5607 20.1009 22.6292 19.9934C22.6978 19.8858 22.734 19.7609 22.7337 19.6334V13.1134C22.7346 12.9866 22.6994 12.8622 22.6321 12.7547C22.5648 12.6473 22.4682 12.5612 22.3537 12.5067ZM17.0737 14.6667L13.6671 13.1134L17.0737 11.5467L20.4804 13.1134L17.0737 14.6667ZM16.4071 10.3734L12.1137 12.3734V7.24672C12.1941 7.24317 12.2731 7.2251 12.3471 7.19339L16.4004 5.33339V10.3867L16.4071 10.3734ZM12.0671 2.72006L15.4737 4.28672L12.0671 5.85339L8.66706 4.28672L12.0671 2.72006ZM7.06706 11.5401L10.4737 13.1067L7.06706 14.6667L3.66039 13.1134L7.06706 11.5401ZM11.4004 19.2001L7.06706 21.2001V16.0734C7.1601 16.0679 7.25094 16.0429 7.33373 16.0001L11.3871 14.1334L11.4004 19.2001ZM21.4004 19.2001L17.0937 21.2001V16.0734C17.1776 16.0644 17.2591 16.0395 17.3337 16.0001L21.3871 14.1334L21.4004 19.2001Z"
         fill="white" />
   </g>
   <defs>
      <clipPath id="clip0_114_9502">
         <rect width="24" height="24" fill="white" />
      </clipPath>
   </defs>
</svg>
