<svg width="25" height="24" viewBox="0 0 25 24" fill="none" xmlns="http://www.w3.org/2000/svg">
   <path
      d="M11.195 8.937V10.314H10.187V11.997H11.195V17H13.267V11.997H14.657C14.657 11.997 14.788 11.19 14.851 10.307H13.275V9.157C13.275 8.984 13.501 8.753 13.725 8.753H14.853V7H13.318C11.144 7 11.195 8.685 11.195 8.937Z"
      fill="white" />
   <path
      d="M12.5 20C14.6217 20 16.6566 19.1571 18.1569 17.6569C19.6571 16.1566 20.5 14.1217 20.5 12C20.5 9.87827 19.6571 7.84344 18.1569 6.34315C16.6566 4.84285 14.6217 4 12.5 4C10.3783 4 8.34344 4.84285 6.84315 6.34315C5.34285 7.84344 4.5 9.87827 4.5 12C4.5 14.1217 5.34285 16.1566 6.84315 17.6569C8.34344 19.1571 10.3783 20 12.5 20ZM12.5 22C6.977 22 2.5 17.523 2.5 12C2.5 6.477 6.977 2 12.5 2C18.023 2 22.5 6.477 22.5 12C22.5 17.523 18.023 22 12.5 22Z"
      fill="white" />
</svg>
