<svg width="25" height="24" viewBox="0 0 25 24" fill="none" xmlns="http://www.w3.org/2000/svg">
   <path
      d="M17.5 13.13V16.827H15.357V13.377C15.357 12.511 15.047 11.92 14.271 11.92C13.679 11.92 13.326 12.318 13.171 12.704C13.115 12.842 13.1 13.034 13.1 13.226V16.827H10.956C10.956 16.827 10.985 10.985 10.956 10.38H13.1V11.293L13.086 11.314H13.1V11.293C13.385 10.853 13.893 10.228 15.032 10.228C16.442 10.228 17.5 11.15 17.5 13.13ZM8.713 7.271C7.98 7.271 7.5 7.753 7.5 8.385C7.5 9.005 7.966 9.5 8.685 9.5H8.699C9.447 9.5 9.912 9.004 9.912 8.385C9.898 7.753 9.447 7.271 8.713 7.271ZM7.627 16.827H9.771V10.38H7.627V16.827Z"
      fill="white" />
   <path
      d="M6.5 4C5.96957 4 5.46086 4.21071 5.08579 4.58579C4.71071 4.96086 4.5 5.46957 4.5 6V18C4.5 18.5304 4.71071 19.0391 5.08579 19.4142C5.46086 19.7893 5.96957 20 6.5 20H18.5C19.0304 20 19.5391 19.7893 19.9142 19.4142C20.2893 19.0391 20.5 18.5304 20.5 18V6C20.5 5.46957 20.2893 4.96086 19.9142 4.58579C19.5391 4.21071 19.0304 4 18.5 4H6.5ZM6.5 2H18.5C19.5609 2 20.5783 2.42143 21.3284 3.17157C22.0786 3.92172 22.5 4.93913 22.5 6V18C22.5 19.0609 22.0786 20.0783 21.3284 20.8284C20.5783 21.5786 19.5609 22 18.5 22H6.5C5.43913 22 4.42172 21.5786 3.67157 20.8284C2.92143 20.0783 2.5 19.0609 2.5 18V6C2.5 4.93913 2.92143 3.92172 3.67157 3.17157C4.42172 2.42143 5.43913 2 6.5 2Z"
      fill="white" />
</svg>
