<svg width="21" height="20" viewBox="0 0 21 20" fill="none" xmlns="http://www.w3.org/2000/svg">
   <path fill-rule="evenodd" clip-rule="evenodd"
      d="M12.5018 13.5999C11.3729 14.4774 9.95433 15 8.41374 15C4.73184 15 1.74707 12.0152 1.74707 8.33333C1.74707 4.65143 4.73184 1.66667 8.41374 1.66667C12.0956 1.66667 15.0804 4.65143 15.0804 8.33333C15.0804 9.87393 14.5578 11.2925 13.6803 12.4214L18.1697 16.9107C18.4951 17.2362 18.4951 17.7638 18.1697 18.0893C17.8442 18.4147 17.3166 18.4147 16.9911 18.0893L12.5018 13.5999ZM13.4137 8.33333C13.4137 11.0948 11.1752 13.3333 8.41374 13.3333C5.65231 13.3333 3.41374 11.0948 3.41374 8.33333C3.41374 5.57191 5.65231 3.33333 8.41374 3.33333C11.1752 3.33333 13.4137 5.57191 13.4137 8.33333Z"
      fill="#00040F" />
</svg>
