<svg width="25" height="24" viewBox="0 0 25 24" fill="none" xmlns="http://www.w3.org/2000/svg">
   <path
      d="M23.4911 3.94988C23.4911 3.77338 23.4443 3.60003 23.3556 3.44744C23.2669 3.29485 23.1394 3.16846 22.986 3.08111C22.8326 2.99375 22.6589 2.94855 22.4824 2.95009C22.3059 2.95164 22.1329 2.99986 21.9811 3.08988C21.3955 3.43869 20.765 3.70583 20.1071 3.88388C19.1681 3.07816 17.9704 2.63729 16.7331 2.64188C15.3758 2.64351 14.0723 3.17251 13.0978 4.1172C12.1232 5.06189 11.554 6.34832 11.5101 7.70488C8.83391 7.27821 6.40839 5.88141 4.69611 3.78088C4.59294 3.65585 4.46124 3.55744 4.3121 3.49392C4.16297 3.4304 4.00075 3.40364 3.83911 3.41588C3.67751 3.42926 3.52159 3.48177 3.38483 3.56888C3.24806 3.65599 3.13455 3.77509 3.05411 3.91588C2.64163 4.63578 2.40475 5.44281 2.3627 6.27144C2.32066 7.10006 2.47463 7.92693 2.81211 8.68488L2.81011 8.68588C2.6581 8.77929 2.53264 8.9102 2.44579 9.06605C2.35893 9.2219 2.31359 9.39746 2.31411 9.57588C2.31251 9.72267 2.32153 9.86939 2.34111 10.0149C2.44324 11.2729 3.00075 12.4505 3.90911 13.3269C3.84747 13.4444 3.80989 13.573 3.79855 13.7052C3.78722 13.8374 3.80237 13.9706 3.84311 14.0969C4.23909 15.331 5.08137 16.373 6.20511 17.0189C5.06328 17.4603 3.83041 17.6142 2.61511 17.4669C2.39028 17.4389 2.16262 17.4881 1.96942 17.6065C1.77622 17.7248 1.62892 17.9052 1.55165 18.1182C1.47438 18.3312 1.47173 18.5641 1.54412 18.7788C1.61651 18.9934 1.75966 19.1772 1.95011 19.2999C4.04032 20.6459 6.47399 21.3614 8.96011 21.3609C11.7794 21.3926 14.5301 20.4918 16.7844 18.7985C19.0387 17.1052 20.6702 14.7143 21.4251 11.9979C21.7781 10.8146 21.9583 9.58664 21.9601 8.35188L21.9591 8.15188C22.4813 7.58868 22.8857 6.92691 23.1488 6.20536C23.4119 5.48381 23.5283 4.717 23.4911 3.94988ZM20.1851 7.16188C20.0198 7.3571 19.936 7.6085 19.9511 7.86388C19.9611 8.02888 19.9601 8.19488 19.9601 8.35188C19.958 9.39506 19.8051 10.4325 19.5061 11.4319C18.8898 13.7435 17.5155 15.7814 15.6034 17.2192C13.6913 18.657 11.352 19.4115 8.96011 19.3619C8.10124 19.362 7.24535 19.261 6.41011 19.0609C7.47542 18.7173 8.47147 18.1878 9.35211 17.4969C9.5145 17.3692 9.63337 17.1944 9.69238 16.9964C9.75139 16.7985 9.74765 16.5871 9.68167 16.3913C9.61569 16.1956 9.49071 16.0251 9.3239 15.9032C9.1571 15.7814 8.95665 15.7142 8.75011 15.7109C7.91884 15.6979 7.12507 15.3627 6.53611 14.7759C6.68545 14.7479 6.83378 14.7129 6.98111 14.6709C7.19714 14.6095 7.3862 14.4771 7.51785 14.2952C7.6495 14.1132 7.71606 13.8922 7.70682 13.6679C7.69758 13.4435 7.61308 13.2287 7.46692 13.0582C7.32076 12.8877 7.12145 12.7713 6.90111 12.7279C6.4186 12.6326 5.96458 12.4273 5.57434 12.1279C5.18411 11.8286 4.86817 11.4432 4.65111 11.0019C4.83187 11.0266 5.01377 11.0419 5.19611 11.0479C5.41279 11.0514 5.62498 10.9859 5.80191 10.8608C5.97883 10.7356 6.1113 10.5574 6.18011 10.3519C6.24616 10.1446 6.24285 9.92153 6.17066 9.71635C6.09848 9.51117 5.96137 9.33511 5.78011 9.21488C5.34005 8.92195 4.97952 8.52442 4.73082 8.05793C4.48213 7.59143 4.35304 7.07053 4.35511 6.54188C4.35511 6.47588 4.35711 6.40888 4.36111 6.34388C6.60258 8.43451 9.51003 9.6669 12.5711 9.82388C12.7257 9.82975 12.8795 9.80039 13.0211 9.73802C13.1626 9.67565 13.2881 9.58191 13.3881 9.46388C13.4871 9.34513 13.5573 9.20503 13.593 9.0546C13.6288 8.90416 13.6291 8.74749 13.5941 8.59688C13.5369 8.35809 13.5077 8.11344 13.5071 7.86788C13.5082 7.01262 13.8484 6.19269 14.4532 5.58792C15.0579 4.98316 15.8778 4.64294 16.7331 4.64188C17.1733 4.64058 17.6089 4.73055 18.0125 4.90611C18.4161 5.08168 18.779 5.33901 19.0781 5.66188C19.1935 5.786 19.3386 5.87855 19.4998 5.93071C19.6611 5.98287 19.8329 5.99291 19.9991 5.95988C20.4099 5.88003 20.8148 5.77245 21.2111 5.63788C20.9409 6.1907 20.5957 6.70355 20.1851 7.16188Z"
      fill="white" />
</svg>
